<svg width="297" height="79" viewBox="0 0 297 79" fill="none" xmlns="http://www.w3.org/2000/svg">
<path d="M84.7999 34.7322C87.1105 33.5274 89.4726 32.925 91.8863 32.925C94.3 32.925 96.3733 33.3093 98.1062 34.0779C99.8597 34.8257 101.397 35.9059 102.717 37.3184C105.585 40.4551 107.018 44.4227 107.018 49.2213C107.018 54.4768 105.461 58.7144 102.346 61.9342C99.3543 65.0294 95.6306 66.5769 91.1746 66.5769C87.2549 66.5769 84.0263 65.5487 81.4889 63.4922C78.6419 61.1656 77.2185 57.9562 77.2185 53.864V19.7446H84.7999V34.7322ZM84.7999 53.7705C84.7999 57.4265 87.0589 59.2545 91.5768 59.2545C93.7842 59.2545 95.6409 58.2782 97.1469 56.3256C98.6735 54.3314 99.4368 51.849 99.4368 48.8785C99.4368 45.8872 98.6322 43.6334 97.0231 42.117C95.579 40.7667 93.6398 40.0916 91.2055 40.0916C89.7408 40.0916 88.1213 40.5902 86.3472 41.5873C85.7902 41.8988 85.2744 42.2416 84.7999 42.6155V53.7705Z" fill="white"/>
<path d="M128.543 66.7477C125.839 66.7477 123.431 66.1734 121.318 65.0247C119.248 63.8761 117.622 62.2807 116.439 60.2387C115.256 58.1966 114.664 55.8355 114.664 53.1553V35.2874H123.03V52.9639C123.03 54.2401 123.241 55.3462 123.663 56.2822C124.086 57.1756 124.72 57.8563 125.565 58.3242C126.41 58.7922 127.402 59.0262 128.543 59.0262C130.275 59.0262 131.627 58.4944 132.599 57.4308C133.571 56.3673 134.057 54.8783 134.057 52.9639V35.2874H142.359V53.1553C142.359 55.878 141.767 58.2604 140.584 60.3025C139.444 62.3445 137.817 63.9399 135.705 65.0885C133.634 66.1946 131.247 66.7477 128.543 66.7477Z" fill="white"/>
<path d="M165.955 66.7477C162.828 66.7477 160.019 66.0457 157.526 64.6418C155.033 63.2379 153.068 61.3235 151.632 58.8986C150.195 56.4736 149.477 53.7509 149.477 50.7304C149.477 47.6673 150.195 44.9233 151.632 42.4984C153.068 40.0734 155.033 38.159 157.526 36.7551C160.061 35.3086 162.87 34.5854 165.955 34.5854C168.363 34.5854 170.581 35.0321 172.609 35.9255C174.637 36.8189 176.39 38.0952 177.869 39.7543L172.546 45.1785C171.743 44.2851 170.771 43.6045 169.63 43.1365C168.532 42.6685 167.307 42.4345 165.955 42.4345C164.434 42.4345 163.061 42.7961 161.835 43.5194C160.652 44.2001 159.702 45.1573 158.983 46.391C158.307 47.5822 157.969 49.0074 157.969 50.6666C157.969 52.2832 158.307 53.7296 158.983 55.0059C159.702 56.2396 160.652 57.2181 161.835 57.9414C163.061 58.622 164.434 58.9624 165.955 58.9624C167.349 58.9624 168.595 58.7284 169.694 58.2604C170.835 57.7499 171.806 57.0267 172.609 56.0907L177.996 61.5149C176.433 63.2166 174.637 64.5142 172.609 65.4076C170.581 66.301 168.363 66.7477 165.955 66.7477Z" fill="white"/>
<path d="M204.752 66.1096L192.901 50.2199L204.689 35.2874H214.258L200.442 52.1343L200.759 48.0502L214.892 66.1096H204.752ZM185.232 66.1096V19.972H193.535V66.1096H185.232Z" fill="white"/>
<path d="M221.25 66.1096V35.2874H229.615V66.1096H221.25ZM225.432 30.3099C224.08 30.3099 222.961 29.8632 222.074 28.9698C221.186 28.0338 220.743 26.8852 220.743 25.5238C220.743 24.205 221.186 23.0776 222.074 22.1417C222.961 21.2057 224.08 20.7378 225.432 20.7378C226.827 20.7378 227.946 21.2057 228.791 22.1417C229.679 23.0776 230.122 24.205 230.122 25.5238C230.122 26.8852 229.679 28.0338 228.791 28.9698C227.946 29.8632 226.827 30.3099 225.432 30.3099Z" fill="white"/>
<path d="M243.561 66.1096V31.969C243.561 29.5015 244.089 27.3319 245.145 25.46C246.201 23.5456 247.701 22.0353 249.645 20.9292C251.588 19.8231 253.87 19.27 256.489 19.27C258.475 19.27 260.186 19.6104 261.622 20.2911C263.059 20.9717 264.348 21.9077 265.488 23.0989L260.228 28.4593C259.763 27.9913 259.256 27.6297 258.707 27.3744C258.158 27.1192 257.461 26.9915 256.616 26.9915C255.095 26.9915 253.912 27.417 253.067 28.2678C252.264 29.0761 251.863 30.246 251.863 31.7776V66.1096H243.561ZM236.463 42.626V35.2874H260.925V42.626H236.463Z" fill="white"/>
<path d="M277.481 66.3648L264.679 35.2874H273.678L282.17 59.0262H279.128L287.937 35.2874H297L283.374 66.301L277.481 66.3648ZM268.988 79L278.304 59.1538L283.374 66.301L277.797 79H268.988Z" fill="white"/>
<path d="M1.52135 35.4023C0.533724 38.4489 0 41.7001 0 45.0761C0 53.4184 3.25904 60.999 8.5726 66.6126L12.6257 62.557C12.9239 62.2586 13.4073 62.2586 13.7055 62.557L16.5046 65.3579C16.8028 65.6563 16.8028 66.14 16.5046 66.4384L12.6855 70.26C17.889 74.1183 24.3302 76.4002 31.304 76.4002C48.5927 76.4002 62.608 62.3759 62.608 45.0761C62.608 38.0978 60.3276 31.6525 56.4718 26.4456L52.7209 30.1989C52.4228 30.4972 51.9393 30.4972 51.6412 30.1989L48.842 27.3979C48.5438 27.0996 48.5438 26.6158 48.842 26.3175L52.8268 22.3301C47.2167 17.0132 39.641 13.752 31.304 13.752C22.2694 13.752 14.1287 17.5818 8.41485 23.7074L18.7418 31.1037C22.0696 28.106 26.4739 26.2817 31.304 26.2817C41.6772 26.2817 50.0864 34.6962 50.0864 45.0761C50.0864 55.456 41.6772 63.8705 31.304 63.8705C20.9308 63.8705 12.5216 55.456 12.5216 45.0761C12.5216 44.4899 12.5484 43.91 12.6009 43.3376L1.52135 35.4023Z" fill="white"/>
<path d="M51.9404 18.3831C52.2386 18.0847 52.722 18.0847 53.0202 18.3831L54.3554 19.7192C54.6535 20.0175 54.6535 20.5013 54.3554 20.7996L48.7656 26.393C48.4675 26.6913 47.984 26.6913 47.6859 26.393L46.3506 25.0569C46.0525 24.7585 46.0525 24.2748 46.3506 23.9764L51.9404 18.3831Z" fill="white"/>
<path d="M10.329 60.0212C10.6272 59.7228 11.1106 59.7228 11.4088 60.0212L12.744 61.3573C13.0421 61.6556 13.0421 62.1394 12.744 62.4377L7.15423 68.0311C6.85606 68.3294 6.37264 68.3294 6.07447 68.0311L4.73924 66.695C4.44107 66.3966 4.44107 65.9129 4.73924 65.6145L10.329 60.0212Z" fill="white"/>
<path d="M58.4302 24.4951C58.7284 24.1967 59.2118 24.1967 59.51 24.4951L60.8452 25.8312C61.1434 26.1295 61.1434 26.6133 60.8452 26.9117L55.2555 32.505C54.9573 32.8033 54.4739 32.8033 54.1757 32.505L52.8405 31.1689C52.5423 30.8705 52.5423 30.3868 52.8405 30.0884L58.4302 24.4951Z" fill="white"/>
<path d="M16.8188 66.1332C17.117 65.8349 17.6004 65.8349 17.8986 66.1332L19.2338 67.4693C19.532 67.7677 19.532 68.2514 19.2338 68.5497L13.644 74.1431C13.3459 74.4414 12.8624 74.4414 12.5643 74.1431L11.2291 72.807C10.9309 72.5086 10.9309 72.0249 11.2291 71.7265L16.8188 66.1332Z" fill="white"/>
<path d="M8.41485 23.7074L12.598 26.7034V46.8302L0 45.8401L1.52135 35.4023C1.52135 35.4023 3.10453 30.4042 8.41485 23.7074Z" fill="white"/>
<path fill-rule="evenodd" clip-rule="evenodd" d="M31.4949 57.6821C38.3471 57.6821 43.902 52.1237 43.902 45.2671C43.902 38.4105 38.3471 32.8521 31.4949 32.8521C24.6426 32.8521 19.0878 38.4105 19.0878 45.2671C19.0878 52.1237 24.6426 57.6821 31.4949 57.6821ZM31.4949 51.1881C34.7629 51.1881 37.4121 48.5372 37.4121 45.2671C37.4121 41.997 34.7629 39.3461 31.4949 39.3461C28.2269 39.3461 25.5777 41.997 25.5777 45.2671C25.5777 48.5372 28.2269 51.1881 31.4949 51.1881Z" fill="white"/>
</svg>
